<mxfile host="app.diagrams.net" agent="Mozilla/5.0 (Windows NT 10.0; Win64; x64; rv:136.0) Gecko/20100101 Firefox/136.0" version="26.1.1">
  <diagram name="1 oldal" id="Lfw7uH7mR_dwtOn-PWIH">
    <mxGraphModel dx="1500" dy="797" grid="1" gridSize="10" guides="1" tooltips="1" connect="1" arrows="1" fold="1" page="1" pageScale="1" pageWidth="827" pageHeight="1169" math="0" shadow="0">
      <root>
        <mxCell id="0" />
        <mxCell id="1" parent="0" />
        <mxCell id="7MCUvtR1y5PKWnJzMDMS-5" value="&lt;font style=&quot;font-size: 20px;&quot;&gt;A&lt;/font&gt;" style="rounded=0;whiteSpace=wrap;html=1;" parent="1" vertex="1">
          <mxGeometry x="340" y="210" width="120" height="60" as="geometry" />
        </mxCell>
        <mxCell id="7MCUvtR1y5PKWnJzMDMS-29" value="&lt;font style=&quot;font-size: 20px;&quot;&gt;E&lt;/font&gt;" style="rounded=0;whiteSpace=wrap;html=1;" parent="1" vertex="1">
          <mxGeometry x="827" y="210" width="120" height="60" as="geometry" />
        </mxCell>
        <mxCell id="7MCUvtR1y5PKWnJzMDMS-43" value="" style="endArrow=classic;startArrow=classic;html=1;rounded=0;entryX=1;entryY=0.5;entryDx=0;entryDy=0;exitX=0;exitY=0.5;exitDx=0;exitDy=0;" parent="1" source="7MCUvtR1y5PKWnJzMDMS-29" target="7MCUvtR1y5PKWnJzMDMS-5" edge="1">
          <mxGeometry width="50" height="50" relative="1" as="geometry">
            <mxPoint x="710" y="239.47" as="sourcePoint" />
            <mxPoint x="610" y="239.47" as="targetPoint" />
          </mxGeometry>
        </mxCell>
        <mxCell id="7MCUvtR1y5PKWnJzMDMS-44" value="&lt;font style=&quot;font-size: 20px;&quot;&gt;A-E&lt;/font&gt;" style="rhombus;whiteSpace=wrap;html=1;" parent="1" vertex="1">
          <mxGeometry x="610" y="210" width="60" height="60" as="geometry" />
        </mxCell>
        <mxCell id="7MCUvtR1y5PKWnJzMDMS-45" value="&lt;u&gt;&lt;font style=&quot;font-size: 20px;&quot;&gt;B.ID&lt;/font&gt;&lt;/u&gt;" style="ellipse;whiteSpace=wrap;html=1;" parent="1" vertex="1">
          <mxGeometry x="160" y="320" width="140" height="70" as="geometry" />
        </mxCell>
        <mxCell id="7MCUvtR1y5PKWnJzMDMS-46" value="&lt;font style=&quot;font-size: 20px;&quot;&gt;D&lt;/font&gt;" style="ellipse;whiteSpace=wrap;html=1;" parent="1" vertex="1">
          <mxGeometry x="330" y="320" width="140" height="70" as="geometry" />
        </mxCell>
        <mxCell id="7MCUvtR1y5PKWnJzMDMS-47" value="&lt;font style=&quot;font-size: 20px;&quot;&gt;C&lt;/font&gt;" style="ellipse;whiteSpace=wrap;html=1;" parent="1" vertex="1">
          <mxGeometry x="500" y="320" width="140" height="70" as="geometry" />
        </mxCell>
        <mxCell id="7MCUvtR1y5PKWnJzMDMS-48" value="" style="endArrow=none;html=1;rounded=0;exitX=0.5;exitY=0;exitDx=0;exitDy=0;entryX=0.5;entryY=1;entryDx=0;entryDy=0;" parent="1" source="7MCUvtR1y5PKWnJzMDMS-46" target="7MCUvtR1y5PKWnJzMDMS-5" edge="1">
          <mxGeometry width="50" height="50" relative="1" as="geometry">
            <mxPoint x="480" y="280" as="sourcePoint" />
            <mxPoint x="530" y="230" as="targetPoint" />
          </mxGeometry>
        </mxCell>
        <mxCell id="7MCUvtR1y5PKWnJzMDMS-49" value="" style="endArrow=none;html=1;rounded=0;exitX=0.5;exitY=0;exitDx=0;exitDy=0;entryX=0.5;entryY=1;entryDx=0;entryDy=0;" parent="1" source="7MCUvtR1y5PKWnJzMDMS-47" target="7MCUvtR1y5PKWnJzMDMS-5" edge="1">
          <mxGeometry width="50" height="50" relative="1" as="geometry">
            <mxPoint x="410" y="330" as="sourcePoint" />
            <mxPoint x="410" y="280" as="targetPoint" />
          </mxGeometry>
        </mxCell>
        <mxCell id="7MCUvtR1y5PKWnJzMDMS-50" value="" style="endArrow=none;html=1;rounded=0;exitX=0.5;exitY=0;exitDx=0;exitDy=0;entryX=0.5;entryY=1;entryDx=0;entryDy=0;" parent="1" source="7MCUvtR1y5PKWnJzMDMS-45" target="7MCUvtR1y5PKWnJzMDMS-5" edge="1">
          <mxGeometry width="50" height="50" relative="1" as="geometry">
            <mxPoint x="420" y="340" as="sourcePoint" />
            <mxPoint x="420" y="290" as="targetPoint" />
          </mxGeometry>
        </mxCell>
        <mxCell id="7MCUvtR1y5PKWnJzMDMS-51" value="&lt;font style=&quot;font-size: 20px;&quot;&gt;D3&lt;/font&gt;" style="ellipse;whiteSpace=wrap;html=1;" parent="1" vertex="1">
          <mxGeometry x="510" y="420" width="110" height="50" as="geometry" />
        </mxCell>
        <mxCell id="7MCUvtR1y5PKWnJzMDMS-52" value="&lt;font style=&quot;font-size: 20px;&quot;&gt;D2&lt;/font&gt;" style="ellipse;whiteSpace=wrap;html=1;" parent="1" vertex="1">
          <mxGeometry x="345" y="420" width="110" height="50" as="geometry" />
        </mxCell>
        <mxCell id="7MCUvtR1y5PKWnJzMDMS-53" value="&lt;font style=&quot;font-size: 20px;&quot;&gt;D1&lt;/font&gt;" style="ellipse;whiteSpace=wrap;html=1;" parent="1" vertex="1">
          <mxGeometry x="190" y="420" width="110" height="50" as="geometry" />
        </mxCell>
        <mxCell id="7MCUvtR1y5PKWnJzMDMS-54" value="" style="endArrow=none;html=1;rounded=0;exitX=0.5;exitY=0;exitDx=0;exitDy=0;fontStyle=4;entryX=0.5;entryY=1;entryDx=0;entryDy=0;" parent="1" source="7MCUvtR1y5PKWnJzMDMS-52" target="7MCUvtR1y5PKWnJzMDMS-46" edge="1">
          <mxGeometry width="50" height="50" relative="1" as="geometry">
            <mxPoint x="410" y="430" as="sourcePoint" />
            <mxPoint x="420" y="400" as="targetPoint" />
          </mxGeometry>
        </mxCell>
        <mxCell id="7MCUvtR1y5PKWnJzMDMS-58" value="" style="endArrow=classic;html=1;rounded=0;exitX=1;exitY=0.5;exitDx=0;exitDy=0;" parent="1" source="7MCUvtR1y5PKWnJzMDMS-44" edge="1">
          <mxGeometry width="50" height="50" relative="1" as="geometry">
            <mxPoint x="720" y="400" as="sourcePoint" />
            <mxPoint x="820" y="240" as="targetPoint" />
          </mxGeometry>
        </mxCell>
        <mxCell id="7MCUvtR1y5PKWnJzMDMS-59" value="" style="endArrow=none;html=1;rounded=0;exitX=0.5;exitY=0;exitDx=0;exitDy=0;entryX=0.5;entryY=1;entryDx=0;entryDy=0;" parent="1" source="7MCUvtR1y5PKWnJzMDMS-51" target="7MCUvtR1y5PKWnJzMDMS-46" edge="1">
          <mxGeometry width="50" height="50" relative="1" as="geometry">
            <mxPoint x="410" y="430" as="sourcePoint" />
            <mxPoint x="409.52" y="390" as="targetPoint" />
          </mxGeometry>
        </mxCell>
        <mxCell id="7MCUvtR1y5PKWnJzMDMS-60" value="" style="endArrow=none;html=1;rounded=0;exitX=0.5;exitY=0;exitDx=0;exitDy=0;entryX=0.5;entryY=1;entryDx=0;entryDy=0;" parent="1" source="7MCUvtR1y5PKWnJzMDMS-53" target="7MCUvtR1y5PKWnJzMDMS-46" edge="1">
          <mxGeometry width="50" height="50" relative="1" as="geometry">
            <mxPoint x="420" y="440" as="sourcePoint" />
            <mxPoint x="400" y="390" as="targetPoint" />
          </mxGeometry>
        </mxCell>
        <mxCell id="7MCUvtR1y5PKWnJzMDMS-61" value="" style="ellipse;whiteSpace=wrap;html=1;" parent="1" vertex="1">
          <mxGeometry x="832" y="100" width="110" height="70" as="geometry" />
        </mxCell>
        <mxCell id="7MCUvtR1y5PKWnJzMDMS-62" value="&lt;font style=&quot;font-size: 20px;&quot;&gt;I&lt;/font&gt;" style="ellipse;whiteSpace=wrap;html=1;" parent="1" vertex="1">
          <mxGeometry x="842" y="105" width="90" height="60" as="geometry" />
        </mxCell>
        <mxCell id="7MCUvtR1y5PKWnJzMDMS-63" value="" style="endArrow=none;html=1;rounded=0;entryX=0.5;entryY=1;entryDx=0;entryDy=0;exitX=0.5;exitY=0;exitDx=0;exitDy=0;" parent="1" source="7MCUvtR1y5PKWnJzMDMS-29" target="7MCUvtR1y5PKWnJzMDMS-61" edge="1">
          <mxGeometry width="50" height="50" relative="1" as="geometry">
            <mxPoint x="870" y="370" as="sourcePoint" />
            <mxPoint x="920" y="320" as="targetPoint" />
          </mxGeometry>
        </mxCell>
        <mxCell id="7MCUvtR1y5PKWnJzMDMS-64" value="&lt;font style=&quot;font-size: 20px;&quot;&gt;H&lt;/font&gt;" style="ellipse;whiteSpace=wrap;html=1;" parent="1" vertex="1">
          <mxGeometry x="980" y="310" width="110" height="50" as="geometry" />
        </mxCell>
        <mxCell id="7MCUvtR1y5PKWnJzMDMS-65" value="&lt;u&gt;&lt;font style=&quot;font-size: 20px;&quot;&gt;F&lt;/font&gt;&lt;/u&gt;" style="ellipse;whiteSpace=wrap;html=1;" parent="1" vertex="1">
          <mxGeometry x="832" y="310" width="110" height="50" as="geometry" />
        </mxCell>
        <mxCell id="7MCUvtR1y5PKWnJzMDMS-66" value="&lt;font style=&quot;font-size: 20px;&quot;&gt;G&lt;/font&gt;" style="ellipse;whiteSpace=wrap;html=1;" parent="1" vertex="1">
          <mxGeometry x="690" y="310" width="110" height="50" as="geometry" />
        </mxCell>
        <mxCell id="7MCUvtR1y5PKWnJzMDMS-67" value="" style="endArrow=none;html=1;rounded=0;exitX=0.5;exitY=0;exitDx=0;exitDy=0;entryX=0.5;entryY=1;entryDx=0;entryDy=0;" parent="1" source="7MCUvtR1y5PKWnJzMDMS-65" edge="1">
          <mxGeometry width="50" height="50" relative="1" as="geometry">
            <mxPoint x="886.52" y="320" as="sourcePoint" />
            <mxPoint x="886.52" y="270" as="targetPoint" />
          </mxGeometry>
        </mxCell>
        <mxCell id="7MCUvtR1y5PKWnJzMDMS-68" value="" style="endArrow=none;html=1;rounded=0;exitX=0.5;exitY=0;exitDx=0;exitDy=0;entryX=0.5;entryY=1;entryDx=0;entryDy=0;" parent="1" source="7MCUvtR1y5PKWnJzMDMS-64" edge="1">
          <mxGeometry width="50" height="50" relative="1" as="geometry">
            <mxPoint x="897" y="320" as="sourcePoint" />
            <mxPoint x="887" y="270" as="targetPoint" />
          </mxGeometry>
        </mxCell>
        <mxCell id="7MCUvtR1y5PKWnJzMDMS-69" value="" style="endArrow=none;html=1;rounded=0;exitX=0.5;exitY=0;exitDx=0;exitDy=0;entryX=0.5;entryY=1;entryDx=0;entryDy=0;" parent="1" source="7MCUvtR1y5PKWnJzMDMS-66" edge="1">
          <mxGeometry width="50" height="50" relative="1" as="geometry">
            <mxPoint x="907" y="330" as="sourcePoint" />
            <mxPoint x="887" y="270" as="targetPoint" />
          </mxGeometry>
        </mxCell>
        <mxCell id="7MCUvtR1y5PKWnJzMDMS-92" value="&lt;font style=&quot;font-size: 20px;&quot;&gt;J&lt;/font&gt;" style="ellipse;whiteSpace=wrap;html=1;" parent="1" vertex="1">
          <mxGeometry x="515" y="90" width="110" height="50" as="geometry" />
        </mxCell>
        <mxCell id="7MCUvtR1y5PKWnJzMDMS-93" value="&lt;font style=&quot;font-size: 20px;&quot;&gt;K&lt;/font&gt;" style="ellipse;whiteSpace=wrap;html=1;dashed=1;dashPattern=12 12;" parent="1" vertex="1">
          <mxGeometry x="660" y="90" width="110" height="50" as="geometry" />
        </mxCell>
        <mxCell id="7MCUvtR1y5PKWnJzMDMS-94" value="" style="endArrow=none;html=1;rounded=0;entryX=0.5;entryY=1;entryDx=0;entryDy=0;exitX=0.5;exitY=0;exitDx=0;exitDy=0;" parent="1" source="7MCUvtR1y5PKWnJzMDMS-44" target="7MCUvtR1y5PKWnJzMDMS-92" edge="1">
          <mxGeometry width="50" height="50" relative="1" as="geometry">
            <mxPoint x="660" y="360" as="sourcePoint" />
            <mxPoint x="710" y="310" as="targetPoint" />
          </mxGeometry>
        </mxCell>
        <mxCell id="7MCUvtR1y5PKWnJzMDMS-95" value="" style="endArrow=none;html=1;rounded=0;entryX=0.5;entryY=1;entryDx=0;entryDy=0;exitX=0.5;exitY=0;exitDx=0;exitDy=0;" parent="1" source="7MCUvtR1y5PKWnJzMDMS-44" target="7MCUvtR1y5PKWnJzMDMS-93" edge="1">
          <mxGeometry width="50" height="50" relative="1" as="geometry">
            <mxPoint x="640" y="210" as="sourcePoint" />
            <mxPoint x="580" y="150" as="targetPoint" />
          </mxGeometry>
        </mxCell>
        <mxCell id="UJ4W_kFyrOD60DP5WewR-1" value="" style="shape=table;startSize=0;container=1;collapsible=0;childLayout=tableLayout;" vertex="1" parent="1">
          <mxGeometry x="790" y="905" width="300" height="80" as="geometry" />
        </mxCell>
        <mxCell id="UJ4W_kFyrOD60DP5WewR-2" value="" style="shape=tableRow;horizontal=0;startSize=0;swimlaneHead=0;swimlaneBody=0;strokeColor=inherit;top=0;left=0;bottom=0;right=0;collapsible=0;dropTarget=0;fillColor=none;points=[[0,0.5],[1,0.5]];portConstraint=eastwest;" vertex="1" parent="UJ4W_kFyrOD60DP5WewR-1">
          <mxGeometry width="300" height="40" as="geometry" />
        </mxCell>
        <mxCell id="UJ4W_kFyrOD60DP5WewR-3" value="" style="shape=partialRectangle;html=1;whiteSpace=wrap;connectable=0;strokeColor=inherit;overflow=hidden;fillColor=none;top=0;left=0;bottom=0;right=0;pointerEvents=1;" vertex="1" parent="UJ4W_kFyrOD60DP5WewR-2">
          <mxGeometry width="60" height="40" as="geometry">
            <mxRectangle width="60" height="40" as="alternateBounds" />
          </mxGeometry>
        </mxCell>
        <mxCell id="UJ4W_kFyrOD60DP5WewR-4" value="" style="shape=partialRectangle;html=1;whiteSpace=wrap;connectable=0;strokeColor=inherit;overflow=hidden;fillColor=none;top=0;left=0;bottom=0;right=0;pointerEvents=1;" vertex="1" parent="UJ4W_kFyrOD60DP5WewR-2">
          <mxGeometry x="60" width="60" height="40" as="geometry">
            <mxRectangle width="60" height="40" as="alternateBounds" />
          </mxGeometry>
        </mxCell>
        <mxCell id="UJ4W_kFyrOD60DP5WewR-5" value="A" style="shape=partialRectangle;html=1;whiteSpace=wrap;connectable=0;strokeColor=inherit;overflow=hidden;fillColor=none;top=0;left=0;bottom=0;right=0;pointerEvents=1;" vertex="1" parent="UJ4W_kFyrOD60DP5WewR-2">
          <mxGeometry x="120" width="60" height="40" as="geometry">
            <mxRectangle width="60" height="40" as="alternateBounds" />
          </mxGeometry>
        </mxCell>
        <mxCell id="UJ4W_kFyrOD60DP5WewR-6" value="" style="shape=partialRectangle;html=1;whiteSpace=wrap;connectable=0;strokeColor=inherit;overflow=hidden;fillColor=none;top=0;left=0;bottom=0;right=0;pointerEvents=1;" vertex="1" parent="UJ4W_kFyrOD60DP5WewR-2">
          <mxGeometry x="180" width="60" height="40" as="geometry">
            <mxRectangle width="60" height="40" as="alternateBounds" />
          </mxGeometry>
        </mxCell>
        <mxCell id="UJ4W_kFyrOD60DP5WewR-7" value="" style="shape=partialRectangle;html=1;whiteSpace=wrap;connectable=0;strokeColor=inherit;overflow=hidden;fillColor=none;top=0;left=0;bottom=0;right=0;pointerEvents=1;" vertex="1" parent="UJ4W_kFyrOD60DP5WewR-2">
          <mxGeometry x="240" width="60" height="40" as="geometry">
            <mxRectangle width="60" height="40" as="alternateBounds" />
          </mxGeometry>
        </mxCell>
        <mxCell id="UJ4W_kFyrOD60DP5WewR-8" value="" style="shape=tableRow;horizontal=0;startSize=0;swimlaneHead=0;swimlaneBody=0;strokeColor=inherit;top=0;left=0;bottom=0;right=0;collapsible=0;dropTarget=0;fillColor=none;points=[[0,0.5],[1,0.5]];portConstraint=eastwest;" vertex="1" parent="UJ4W_kFyrOD60DP5WewR-1">
          <mxGeometry y="40" width="300" height="40" as="geometry" />
        </mxCell>
        <mxCell id="UJ4W_kFyrOD60DP5WewR-9" value="&lt;u&gt;B&lt;/u&gt;" style="shape=partialRectangle;html=1;whiteSpace=wrap;connectable=0;strokeColor=inherit;overflow=hidden;fillColor=none;top=0;left=0;bottom=0;right=0;pointerEvents=1;" vertex="1" parent="UJ4W_kFyrOD60DP5WewR-8">
          <mxGeometry width="60" height="40" as="geometry">
            <mxRectangle width="60" height="40" as="alternateBounds" />
          </mxGeometry>
        </mxCell>
        <mxCell id="UJ4W_kFyrOD60DP5WewR-10" value="C" style="shape=partialRectangle;html=1;whiteSpace=wrap;connectable=0;strokeColor=inherit;overflow=hidden;fillColor=none;top=0;left=0;bottom=0;right=0;pointerEvents=1;" vertex="1" parent="UJ4W_kFyrOD60DP5WewR-8">
          <mxGeometry x="60" width="60" height="40" as="geometry">
            <mxRectangle width="60" height="40" as="alternateBounds" />
          </mxGeometry>
        </mxCell>
        <mxCell id="UJ4W_kFyrOD60DP5WewR-11" value="D1" style="shape=partialRectangle;html=1;whiteSpace=wrap;connectable=0;strokeColor=inherit;overflow=hidden;fillColor=none;top=0;left=0;bottom=0;right=0;pointerEvents=1;" vertex="1" parent="UJ4W_kFyrOD60DP5WewR-8">
          <mxGeometry x="120" width="60" height="40" as="geometry">
            <mxRectangle width="60" height="40" as="alternateBounds" />
          </mxGeometry>
        </mxCell>
        <mxCell id="UJ4W_kFyrOD60DP5WewR-12" value="D2" style="shape=partialRectangle;html=1;whiteSpace=wrap;connectable=0;strokeColor=inherit;overflow=hidden;fillColor=none;top=0;left=0;bottom=0;right=0;pointerEvents=1;" vertex="1" parent="UJ4W_kFyrOD60DP5WewR-8">
          <mxGeometry x="180" width="60" height="40" as="geometry">
            <mxRectangle width="60" height="40" as="alternateBounds" />
          </mxGeometry>
        </mxCell>
        <mxCell id="UJ4W_kFyrOD60DP5WewR-13" value="D3" style="shape=partialRectangle;html=1;whiteSpace=wrap;connectable=0;strokeColor=inherit;overflow=hidden;fillColor=none;top=0;left=0;bottom=0;right=0;pointerEvents=1;" vertex="1" parent="UJ4W_kFyrOD60DP5WewR-8">
          <mxGeometry x="240" width="60" height="40" as="geometry">
            <mxRectangle width="60" height="40" as="alternateBounds" />
          </mxGeometry>
        </mxCell>
        <mxCell id="UJ4W_kFyrOD60DP5WewR-15" value="" style="shape=table;startSize=0;container=1;collapsible=0;childLayout=tableLayout;" vertex="1" parent="1">
          <mxGeometry x="1210" y="890" width="180" height="80" as="geometry" />
        </mxCell>
        <mxCell id="UJ4W_kFyrOD60DP5WewR-16" value="" style="shape=tableRow;horizontal=0;startSize=0;swimlaneHead=0;swimlaneBody=0;strokeColor=inherit;top=0;left=0;bottom=0;right=0;collapsible=0;dropTarget=0;fillColor=none;points=[[0,0.5],[1,0.5]];portConstraint=eastwest;" vertex="1" parent="UJ4W_kFyrOD60DP5WewR-15">
          <mxGeometry width="180" height="40" as="geometry" />
        </mxCell>
        <mxCell id="UJ4W_kFyrOD60DP5WewR-17" value="" style="shape=partialRectangle;html=1;whiteSpace=wrap;connectable=0;strokeColor=inherit;overflow=hidden;fillColor=none;top=0;left=0;bottom=0;right=0;pointerEvents=1;" vertex="1" parent="UJ4W_kFyrOD60DP5WewR-16">
          <mxGeometry width="60" height="40" as="geometry">
            <mxRectangle width="60" height="40" as="alternateBounds" />
          </mxGeometry>
        </mxCell>
        <mxCell id="UJ4W_kFyrOD60DP5WewR-18" value="A-E" style="shape=partialRectangle;html=1;whiteSpace=wrap;connectable=0;strokeColor=inherit;overflow=hidden;fillColor=none;top=0;left=0;bottom=0;right=0;pointerEvents=1;" vertex="1" parent="UJ4W_kFyrOD60DP5WewR-16">
          <mxGeometry x="60" width="60" height="40" as="geometry">
            <mxRectangle width="60" height="40" as="alternateBounds" />
          </mxGeometry>
        </mxCell>
        <mxCell id="UJ4W_kFyrOD60DP5WewR-19" value="" style="shape=partialRectangle;html=1;whiteSpace=wrap;connectable=0;strokeColor=inherit;overflow=hidden;fillColor=none;top=0;left=0;bottom=0;right=0;pointerEvents=1;" vertex="1" parent="UJ4W_kFyrOD60DP5WewR-16">
          <mxGeometry x="120" width="60" height="40" as="geometry">
            <mxRectangle width="60" height="40" as="alternateBounds" />
          </mxGeometry>
        </mxCell>
        <mxCell id="UJ4W_kFyrOD60DP5WewR-20" value="" style="shape=tableRow;horizontal=0;startSize=0;swimlaneHead=0;swimlaneBody=0;strokeColor=inherit;top=0;left=0;bottom=0;right=0;collapsible=0;dropTarget=0;fillColor=none;points=[[0,0.5],[1,0.5]];portConstraint=eastwest;" vertex="1" parent="UJ4W_kFyrOD60DP5WewR-15">
          <mxGeometry y="40" width="180" height="40" as="geometry" />
        </mxCell>
        <mxCell id="UJ4W_kFyrOD60DP5WewR-21" value="&lt;u&gt;Bk&lt;/u&gt;" style="shape=partialRectangle;html=1;whiteSpace=wrap;connectable=0;strokeColor=inherit;overflow=hidden;fillColor=none;top=0;left=0;bottom=0;right=0;pointerEvents=1;" vertex="1" parent="UJ4W_kFyrOD60DP5WewR-20">
          <mxGeometry width="60" height="40" as="geometry">
            <mxRectangle width="60" height="40" as="alternateBounds" />
          </mxGeometry>
        </mxCell>
        <mxCell id="UJ4W_kFyrOD60DP5WewR-22" value="J" style="shape=partialRectangle;html=1;whiteSpace=wrap;connectable=0;strokeColor=inherit;overflow=hidden;fillColor=none;top=0;left=0;bottom=0;right=0;pointerEvents=1;" vertex="1" parent="UJ4W_kFyrOD60DP5WewR-20">
          <mxGeometry x="60" width="60" height="40" as="geometry">
            <mxRectangle width="60" height="40" as="alternateBounds" />
          </mxGeometry>
        </mxCell>
        <mxCell id="UJ4W_kFyrOD60DP5WewR-23" value="&lt;u&gt;Fk&lt;/u&gt;" style="shape=partialRectangle;html=1;whiteSpace=wrap;connectable=0;strokeColor=inherit;overflow=hidden;fillColor=none;top=0;left=0;bottom=0;right=0;pointerEvents=1;" vertex="1" parent="UJ4W_kFyrOD60DP5WewR-20">
          <mxGeometry x="120" width="60" height="40" as="geometry">
            <mxRectangle width="60" height="40" as="alternateBounds" />
          </mxGeometry>
        </mxCell>
        <mxCell id="UJ4W_kFyrOD60DP5WewR-24" style="edgeStyle=orthogonalEdgeStyle;rounded=0;orthogonalLoop=1;jettySize=auto;html=1;exitX=0.162;exitY=1.002;exitDx=0;exitDy=0;exitPerimeter=0;entryX=0.111;entryY=1;entryDx=0;entryDy=0;entryPerimeter=0;" edge="1" parent="1" source="UJ4W_kFyrOD60DP5WewR-20" target="UJ4W_kFyrOD60DP5WewR-8">
          <mxGeometry relative="1" as="geometry">
            <mxPoint x="820" y="1065" as="targetPoint" />
            <Array as="points">
              <mxPoint x="1239" y="1055" />
              <mxPoint x="823" y="1055" />
            </Array>
          </mxGeometry>
        </mxCell>
        <mxCell id="UJ4W_kFyrOD60DP5WewR-25" value="" style="shape=table;startSize=0;container=1;collapsible=0;childLayout=tableLayout;" vertex="1" parent="1">
          <mxGeometry x="1490" y="895" width="180" height="80" as="geometry" />
        </mxCell>
        <mxCell id="UJ4W_kFyrOD60DP5WewR-26" value="" style="shape=tableRow;horizontal=0;startSize=0;swimlaneHead=0;swimlaneBody=0;strokeColor=inherit;top=0;left=0;bottom=0;right=0;collapsible=0;dropTarget=0;fillColor=none;points=[[0,0.5],[1,0.5]];portConstraint=eastwest;" vertex="1" parent="UJ4W_kFyrOD60DP5WewR-25">
          <mxGeometry width="180" height="40" as="geometry" />
        </mxCell>
        <mxCell id="UJ4W_kFyrOD60DP5WewR-27" value="" style="shape=partialRectangle;html=1;whiteSpace=wrap;connectable=0;strokeColor=inherit;overflow=hidden;fillColor=none;top=0;left=0;bottom=0;right=0;pointerEvents=1;" vertex="1" parent="UJ4W_kFyrOD60DP5WewR-26">
          <mxGeometry width="60" height="40" as="geometry">
            <mxRectangle width="60" height="40" as="alternateBounds" />
          </mxGeometry>
        </mxCell>
        <mxCell id="UJ4W_kFyrOD60DP5WewR-28" value="E" style="shape=partialRectangle;html=1;whiteSpace=wrap;connectable=0;strokeColor=inherit;overflow=hidden;fillColor=none;top=0;left=0;bottom=0;right=0;pointerEvents=1;" vertex="1" parent="UJ4W_kFyrOD60DP5WewR-26">
          <mxGeometry x="60" width="60" height="40" as="geometry">
            <mxRectangle width="60" height="40" as="alternateBounds" />
          </mxGeometry>
        </mxCell>
        <mxCell id="UJ4W_kFyrOD60DP5WewR-29" value="" style="shape=partialRectangle;html=1;whiteSpace=wrap;connectable=0;strokeColor=inherit;overflow=hidden;fillColor=none;top=0;left=0;bottom=0;right=0;pointerEvents=1;" vertex="1" parent="UJ4W_kFyrOD60DP5WewR-26">
          <mxGeometry x="120" width="60" height="40" as="geometry">
            <mxRectangle width="60" height="40" as="alternateBounds" />
          </mxGeometry>
        </mxCell>
        <mxCell id="UJ4W_kFyrOD60DP5WewR-30" value="" style="shape=tableRow;horizontal=0;startSize=0;swimlaneHead=0;swimlaneBody=0;strokeColor=inherit;top=0;left=0;bottom=0;right=0;collapsible=0;dropTarget=0;fillColor=none;points=[[0,0.5],[1,0.5]];portConstraint=eastwest;" vertex="1" parent="UJ4W_kFyrOD60DP5WewR-25">
          <mxGeometry y="40" width="180" height="40" as="geometry" />
        </mxCell>
        <mxCell id="UJ4W_kFyrOD60DP5WewR-31" value="&lt;u&gt;F&lt;/u&gt;" style="shape=partialRectangle;html=1;whiteSpace=wrap;connectable=0;strokeColor=inherit;overflow=hidden;fillColor=none;top=0;left=0;bottom=0;right=0;pointerEvents=1;" vertex="1" parent="UJ4W_kFyrOD60DP5WewR-30">
          <mxGeometry width="60" height="40" as="geometry">
            <mxRectangle width="60" height="40" as="alternateBounds" />
          </mxGeometry>
        </mxCell>
        <mxCell id="UJ4W_kFyrOD60DP5WewR-32" value="G" style="shape=partialRectangle;html=1;whiteSpace=wrap;connectable=0;strokeColor=inherit;overflow=hidden;fillColor=none;top=0;left=0;bottom=0;right=0;pointerEvents=1;" vertex="1" parent="UJ4W_kFyrOD60DP5WewR-30">
          <mxGeometry x="60" width="60" height="40" as="geometry">
            <mxRectangle width="60" height="40" as="alternateBounds" />
          </mxGeometry>
        </mxCell>
        <mxCell id="UJ4W_kFyrOD60DP5WewR-33" value="H" style="shape=partialRectangle;html=1;whiteSpace=wrap;connectable=0;strokeColor=inherit;overflow=hidden;fillColor=none;top=0;left=0;bottom=0;right=0;pointerEvents=1;" vertex="1" parent="UJ4W_kFyrOD60DP5WewR-30">
          <mxGeometry x="120" width="60" height="40" as="geometry">
            <mxRectangle width="60" height="40" as="alternateBounds" />
          </mxGeometry>
        </mxCell>
        <mxCell id="UJ4W_kFyrOD60DP5WewR-34" style="edgeStyle=orthogonalEdgeStyle;rounded=0;orthogonalLoop=1;jettySize=auto;html=1;exitX=0.828;exitY=1.019;exitDx=0;exitDy=0;exitPerimeter=0;entryX=0.124;entryY=0.988;entryDx=0;entryDy=0;entryPerimeter=0;" edge="1" parent="1" source="UJ4W_kFyrOD60DP5WewR-15" target="UJ4W_kFyrOD60DP5WewR-30">
          <mxGeometry relative="1" as="geometry">
            <mxPoint x="1520" y="1025" as="targetPoint" />
            <Array as="points">
              <mxPoint x="1359" y="1025" />
              <mxPoint x="1512" y="1025" />
            </Array>
          </mxGeometry>
        </mxCell>
        <mxCell id="UJ4W_kFyrOD60DP5WewR-35" value="" style="shape=table;startSize=0;container=1;collapsible=0;childLayout=tableLayout;verticalAlign=middle;" vertex="1" parent="1">
          <mxGeometry x="1750" y="895" width="120" height="80" as="geometry" />
        </mxCell>
        <mxCell id="UJ4W_kFyrOD60DP5WewR-36" value="" style="shape=tableRow;horizontal=0;startSize=0;swimlaneHead=0;swimlaneBody=0;strokeColor=inherit;top=0;left=0;bottom=0;right=0;collapsible=0;dropTarget=0;fillColor=none;points=[[0,0.5],[1,0.5]];portConstraint=eastwest;" vertex="1" parent="UJ4W_kFyrOD60DP5WewR-35">
          <mxGeometry width="120" height="40" as="geometry" />
        </mxCell>
        <mxCell id="UJ4W_kFyrOD60DP5WewR-37" value="I" style="shape=partialRectangle;html=1;whiteSpace=wrap;connectable=0;strokeColor=inherit;overflow=hidden;fillColor=none;top=0;left=0;bottom=0;right=0;pointerEvents=1;" vertex="1" parent="UJ4W_kFyrOD60DP5WewR-36">
          <mxGeometry width="60" height="40" as="geometry">
            <mxRectangle width="60" height="40" as="alternateBounds" />
          </mxGeometry>
        </mxCell>
        <mxCell id="UJ4W_kFyrOD60DP5WewR-38" value="" style="shape=partialRectangle;html=1;whiteSpace=wrap;connectable=0;strokeColor=inherit;overflow=hidden;fillColor=none;top=0;left=0;bottom=0;right=0;pointerEvents=1;" vertex="1" parent="UJ4W_kFyrOD60DP5WewR-36">
          <mxGeometry x="60" width="60" height="40" as="geometry">
            <mxRectangle width="60" height="40" as="alternateBounds" />
          </mxGeometry>
        </mxCell>
        <mxCell id="UJ4W_kFyrOD60DP5WewR-39" value="" style="shape=tableRow;horizontal=0;startSize=0;swimlaneHead=0;swimlaneBody=0;strokeColor=inherit;top=0;left=0;bottom=0;right=0;collapsible=0;dropTarget=0;fillColor=none;points=[[0,0.5],[1,0.5]];portConstraint=eastwest;" vertex="1" parent="UJ4W_kFyrOD60DP5WewR-35">
          <mxGeometry y="40" width="120" height="40" as="geometry" />
        </mxCell>
        <mxCell id="UJ4W_kFyrOD60DP5WewR-40" value="&lt;u&gt;Fk&lt;/u&gt;" style="shape=partialRectangle;html=1;whiteSpace=wrap;connectable=0;strokeColor=inherit;overflow=hidden;fillColor=none;top=0;left=0;bottom=0;right=0;pointerEvents=1;" vertex="1" parent="UJ4W_kFyrOD60DP5WewR-39">
          <mxGeometry width="60" height="40" as="geometry">
            <mxRectangle width="60" height="40" as="alternateBounds" />
          </mxGeometry>
        </mxCell>
        <mxCell id="UJ4W_kFyrOD60DP5WewR-41" value="I_érték" style="shape=partialRectangle;html=1;whiteSpace=wrap;connectable=0;strokeColor=inherit;overflow=hidden;fillColor=none;top=0;left=0;bottom=0;right=0;pointerEvents=1;" vertex="1" parent="UJ4W_kFyrOD60DP5WewR-39">
          <mxGeometry x="60" width="60" height="40" as="geometry">
            <mxRectangle width="60" height="40" as="alternateBounds" />
          </mxGeometry>
        </mxCell>
        <mxCell id="UJ4W_kFyrOD60DP5WewR-42" style="edgeStyle=orthogonalEdgeStyle;rounded=0;orthogonalLoop=1;jettySize=auto;html=1;exitX=0.24;exitY=1.008;exitDx=0;exitDy=0;exitPerimeter=0;entryX=0.208;entryY=1.006;entryDx=0;entryDy=0;entryPerimeter=0;" edge="1" parent="1" target="UJ4W_kFyrOD60DP5WewR-30">
          <mxGeometry relative="1" as="geometry">
            <mxPoint x="1526.54" y="976.6400000000001" as="targetPoint" />
            <mxPoint x="1778.8000000000002" y="974.9999999999999" as="sourcePoint" />
            <Array as="points">
              <mxPoint x="1779" y="1025" />
              <mxPoint x="1527" y="1025" />
            </Array>
          </mxGeometry>
        </mxCell>
        <mxCell id="UJ4W_kFyrOD60DP5WewR-47" value="A_tábla" style="shape=table;startSize=30;container=1;collapsible=0;childLayout=tableLayout;strokeColor=default;fontSize=16;" vertex="1" parent="1">
          <mxGeometry x="850" y="600" width="300" height="80" as="geometry" />
        </mxCell>
        <mxCell id="UJ4W_kFyrOD60DP5WewR-48" value="" style="shape=tableRow;horizontal=0;startSize=0;swimlaneHead=0;swimlaneBody=0;strokeColor=inherit;top=0;left=0;bottom=0;right=0;collapsible=0;dropTarget=0;fillColor=none;points=[[0,0.5],[1,0.5]];portConstraint=eastwest;fontSize=16;" vertex="1" parent="UJ4W_kFyrOD60DP5WewR-47">
          <mxGeometry y="30" width="300" height="50" as="geometry" />
        </mxCell>
        <mxCell id="UJ4W_kFyrOD60DP5WewR-49" value="&lt;u&gt;B&lt;/u&gt;" style="shape=partialRectangle;html=1;whiteSpace=wrap;connectable=0;strokeColor=inherit;overflow=hidden;fillColor=none;top=0;left=0;bottom=0;right=0;pointerEvents=1;fontSize=16;" vertex="1" parent="UJ4W_kFyrOD60DP5WewR-48">
          <mxGeometry width="60" height="50" as="geometry">
            <mxRectangle width="60" height="50" as="alternateBounds" />
          </mxGeometry>
        </mxCell>
        <mxCell id="UJ4W_kFyrOD60DP5WewR-50" value="C" style="shape=partialRectangle;html=1;whiteSpace=wrap;connectable=0;strokeColor=inherit;overflow=hidden;fillColor=none;top=0;left=0;bottom=0;right=0;pointerEvents=1;fontSize=16;" vertex="1" parent="UJ4W_kFyrOD60DP5WewR-48">
          <mxGeometry x="60" width="60" height="50" as="geometry">
            <mxRectangle width="60" height="50" as="alternateBounds" />
          </mxGeometry>
        </mxCell>
        <mxCell id="UJ4W_kFyrOD60DP5WewR-51" value="D1" style="shape=partialRectangle;html=1;whiteSpace=wrap;connectable=0;strokeColor=inherit;overflow=hidden;fillColor=none;top=0;left=0;bottom=0;right=0;pointerEvents=1;fontSize=16;" vertex="1" parent="UJ4W_kFyrOD60DP5WewR-48">
          <mxGeometry x="120" width="60" height="50" as="geometry">
            <mxRectangle width="60" height="50" as="alternateBounds" />
          </mxGeometry>
        </mxCell>
        <mxCell id="UJ4W_kFyrOD60DP5WewR-60" value="D2" style="shape=partialRectangle;html=1;whiteSpace=wrap;connectable=0;strokeColor=inherit;overflow=hidden;fillColor=none;top=0;left=0;bottom=0;right=0;pointerEvents=1;fontSize=16;" vertex="1" parent="UJ4W_kFyrOD60DP5WewR-48">
          <mxGeometry x="180" width="60" height="50" as="geometry">
            <mxRectangle width="60" height="50" as="alternateBounds" />
          </mxGeometry>
        </mxCell>
        <mxCell id="UJ4W_kFyrOD60DP5WewR-61" value="D3" style="shape=partialRectangle;html=1;whiteSpace=wrap;connectable=0;strokeColor=inherit;overflow=hidden;fillColor=none;top=0;left=0;bottom=0;right=0;pointerEvents=1;fontSize=16;" vertex="1" parent="UJ4W_kFyrOD60DP5WewR-48">
          <mxGeometry x="240" width="60" height="50" as="geometry">
            <mxRectangle width="60" height="50" as="alternateBounds" />
          </mxGeometry>
        </mxCell>
        <mxCell id="UJ4W_kFyrOD60DP5WewR-75" style="edgeStyle=orthogonalEdgeStyle;rounded=0;orthogonalLoop=1;jettySize=auto;html=1;exitX=0.168;exitY=1;exitDx=0;exitDy=0;exitPerimeter=0;entryX=0.1;entryY=1.008;entryDx=0;entryDy=0;entryPerimeter=0;" edge="1" parent="1" source="UJ4W_kFyrOD60DP5WewR-63" target="UJ4W_kFyrOD60DP5WewR-48">
          <mxGeometry relative="1" as="geometry">
            <mxPoint x="1230" y="830" as="targetPoint" />
            <Array as="points">
              <mxPoint x="1240" y="720" />
              <mxPoint x="1240" y="720" />
              <mxPoint x="1240" y="760" />
              <mxPoint x="880" y="760" />
            </Array>
          </mxGeometry>
        </mxCell>
        <mxCell id="UJ4W_kFyrOD60DP5WewR-90" style="edgeStyle=orthogonalEdgeStyle;rounded=0;orthogonalLoop=1;jettySize=auto;html=1;entryX=0.111;entryY=1;entryDx=0;entryDy=0;entryPerimeter=0;" edge="1" parent="1" source="UJ4W_kFyrOD60DP5WewR-62" target="UJ4W_kFyrOD60DP5WewR-77">
          <mxGeometry relative="1" as="geometry">
            <mxPoint x="1500" y="700" as="targetPoint" />
            <Array as="points">
              <mxPoint x="1300" y="760" />
              <mxPoint x="1510" y="760" />
            </Array>
          </mxGeometry>
        </mxCell>
        <mxCell id="UJ4W_kFyrOD60DP5WewR-62" value="A-E" style="shape=table;startSize=30;container=1;collapsible=0;childLayout=tableLayout;strokeColor=default;fontSize=16;" vertex="1" parent="1">
          <mxGeometry x="1210" y="600" width="180" height="80" as="geometry" />
        </mxCell>
        <mxCell id="UJ4W_kFyrOD60DP5WewR-63" value="" style="shape=tableRow;horizontal=0;startSize=0;swimlaneHead=0;swimlaneBody=0;strokeColor=inherit;top=0;left=0;bottom=0;right=0;collapsible=0;dropTarget=0;fillColor=none;points=[[0,0.5],[1,0.5]];portConstraint=eastwest;fontSize=16;" vertex="1" parent="UJ4W_kFyrOD60DP5WewR-62">
          <mxGeometry y="30" width="180" height="50" as="geometry" />
        </mxCell>
        <mxCell id="UJ4W_kFyrOD60DP5WewR-64" value="pBk" style="shape=partialRectangle;html=1;whiteSpace=wrap;connectable=0;strokeColor=inherit;overflow=hidden;fillColor=none;top=0;left=0;bottom=0;right=0;pointerEvents=1;fontSize=16;" vertex="1" parent="UJ4W_kFyrOD60DP5WewR-63">
          <mxGeometry width="60" height="50" as="geometry">
            <mxRectangle width="60" height="50" as="alternateBounds" />
          </mxGeometry>
        </mxCell>
        <mxCell id="UJ4W_kFyrOD60DP5WewR-65" value="J" style="shape=partialRectangle;html=1;whiteSpace=wrap;connectable=0;strokeColor=inherit;overflow=hidden;fillColor=none;top=0;left=0;bottom=0;right=0;pointerEvents=1;fontSize=16;" vertex="1" parent="UJ4W_kFyrOD60DP5WewR-63">
          <mxGeometry x="60" width="60" height="50" as="geometry">
            <mxRectangle width="60" height="50" as="alternateBounds" />
          </mxGeometry>
        </mxCell>
        <mxCell id="UJ4W_kFyrOD60DP5WewR-66" value="pFk" style="shape=partialRectangle;html=1;whiteSpace=wrap;connectable=0;strokeColor=inherit;overflow=hidden;fillColor=none;top=0;left=0;bottom=0;right=0;pointerEvents=1;fontSize=16;" vertex="1" parent="UJ4W_kFyrOD60DP5WewR-63">
          <mxGeometry x="120" width="60" height="50" as="geometry">
            <mxRectangle width="60" height="50" as="alternateBounds" />
          </mxGeometry>
        </mxCell>
        <mxCell id="UJ4W_kFyrOD60DP5WewR-76" value="E_tábla" style="shape=table;startSize=30;container=1;collapsible=0;childLayout=tableLayout;strokeColor=default;fontSize=16;" vertex="1" parent="1">
          <mxGeometry x="1490" y="600" width="180" height="80" as="geometry" />
        </mxCell>
        <mxCell id="UJ4W_kFyrOD60DP5WewR-77" value="" style="shape=tableRow;horizontal=0;startSize=0;swimlaneHead=0;swimlaneBody=0;strokeColor=inherit;top=0;left=0;bottom=0;right=0;collapsible=0;dropTarget=0;fillColor=none;points=[[0,0.5],[1,0.5]];portConstraint=eastwest;fontSize=16;" vertex="1" parent="UJ4W_kFyrOD60DP5WewR-76">
          <mxGeometry y="30" width="180" height="50" as="geometry" />
        </mxCell>
        <mxCell id="UJ4W_kFyrOD60DP5WewR-78" value="&lt;u&gt;F&lt;/u&gt;" style="shape=partialRectangle;html=1;whiteSpace=wrap;connectable=0;strokeColor=inherit;overflow=hidden;fillColor=none;top=0;left=0;bottom=0;right=0;pointerEvents=1;fontSize=16;" vertex="1" parent="UJ4W_kFyrOD60DP5WewR-77">
          <mxGeometry width="60" height="50" as="geometry">
            <mxRectangle width="60" height="50" as="alternateBounds" />
          </mxGeometry>
        </mxCell>
        <mxCell id="UJ4W_kFyrOD60DP5WewR-79" value="G" style="shape=partialRectangle;html=1;whiteSpace=wrap;connectable=0;strokeColor=inherit;overflow=hidden;fillColor=none;top=0;left=0;bottom=0;right=0;pointerEvents=1;fontSize=16;" vertex="1" parent="UJ4W_kFyrOD60DP5WewR-77">
          <mxGeometry x="60" width="60" height="50" as="geometry">
            <mxRectangle width="60" height="50" as="alternateBounds" />
          </mxGeometry>
        </mxCell>
        <mxCell id="UJ4W_kFyrOD60DP5WewR-80" value="H" style="shape=partialRectangle;html=1;whiteSpace=wrap;connectable=0;strokeColor=inherit;overflow=hidden;fillColor=none;top=0;left=0;bottom=0;right=0;pointerEvents=1;fontSize=16;" vertex="1" parent="UJ4W_kFyrOD60DP5WewR-77">
          <mxGeometry x="120" width="60" height="50" as="geometry">
            <mxRectangle width="60" height="50" as="alternateBounds" />
          </mxGeometry>
        </mxCell>
        <mxCell id="UJ4W_kFyrOD60DP5WewR-105" style="edgeStyle=orthogonalEdgeStyle;rounded=0;orthogonalLoop=1;jettySize=auto;html=1;entryX=0.222;entryY=1;entryDx=0;entryDy=0;entryPerimeter=0;exitX=0.241;exitY=1.031;exitDx=0;exitDy=0;exitPerimeter=0;" edge="1" parent="1" source="UJ4W_kFyrOD60DP5WewR-93" target="UJ4W_kFyrOD60DP5WewR-77">
          <mxGeometry relative="1" as="geometry">
            <mxPoint x="1530" y="760" as="targetPoint" />
            <Array as="points">
              <mxPoint x="1774" y="760" />
              <mxPoint x="1530" y="760" />
            </Array>
          </mxGeometry>
        </mxCell>
        <mxCell id="UJ4W_kFyrOD60DP5WewR-92" value="Table" style="shape=table;startSize=30;container=1;collapsible=0;childLayout=tableLayout;strokeColor=default;fontSize=16;" vertex="1" parent="1">
          <mxGeometry x="1740" y="600" width="140" height="80" as="geometry" />
        </mxCell>
        <mxCell id="UJ4W_kFyrOD60DP5WewR-93" value="" style="shape=tableRow;horizontal=0;startSize=0;swimlaneHead=0;swimlaneBody=0;strokeColor=inherit;top=0;left=0;bottom=0;right=0;collapsible=0;dropTarget=0;fillColor=none;points=[[0,0.5],[1,0.5]];portConstraint=eastwest;fontSize=16;" vertex="1" parent="UJ4W_kFyrOD60DP5WewR-92">
          <mxGeometry y="30" width="140" height="50" as="geometry" />
        </mxCell>
        <mxCell id="UJ4W_kFyrOD60DP5WewR-94" value="pFk" style="shape=partialRectangle;html=1;whiteSpace=wrap;connectable=0;strokeColor=inherit;overflow=hidden;fillColor=none;top=0;left=0;bottom=0;right=0;pointerEvents=1;fontSize=16;" vertex="1" parent="UJ4W_kFyrOD60DP5WewR-93">
          <mxGeometry width="70" height="50" as="geometry">
            <mxRectangle width="70" height="50" as="alternateBounds" />
          </mxGeometry>
        </mxCell>
        <mxCell id="UJ4W_kFyrOD60DP5WewR-95" value="&lt;div&gt;I_érték&lt;/div&gt;" style="shape=partialRectangle;html=1;whiteSpace=wrap;connectable=0;strokeColor=inherit;overflow=hidden;fillColor=none;top=0;left=0;bottom=0;right=0;pointerEvents=1;fontSize=16;" vertex="1" parent="UJ4W_kFyrOD60DP5WewR-93">
          <mxGeometry x="70" width="70" height="50" as="geometry">
            <mxRectangle width="70" height="50" as="alternateBounds" />
          </mxGeometry>
        </mxCell>
      </root>
    </mxGraphModel>
  </diagram>
</mxfile>
